<?xml version="1.0" encoding="utf-8"?>
<!-- Svg Vector Icons : http://www.onlinewebfonts.com/icon -->
<!DOCTYPE svg PUBLIC "-//W3C//DTD SVG 1.1//EN" "http://www.w3.org/Graphics/SVG/1.1/DTD/svg11.dtd">
<svg version="1.1" xmlns="http://www.w3.org/2000/svg" xmlns:xlink="http://www.w3.org/1999/xlink" x="0px" y="0px" viewBox="0 0 1000 1000" enable-background="new 0 0 1000 1000" xml:space="preserve">
<metadata> Svg Vector Icons : http://www.onlinewebfonts.com/icon </metadata>
<g><g transform="translate(0.000000,512.000000) scale(0.100000,-0.100000)"><path d="M4530.1,5007.9C3375.4,4889,2341.7,4400,1530.4,3588.6C751.6,2809.9,287.5,1860.5,124.4,723.1c-32.6-226.3-32.6-982,0-1208.3c163-1137.4,629.1-2086.8,1405.9-2865.5c776.8-776.8,1730-1244.8,2865.5-1405.9c226.3-32.6,982-32.6,1208.3,0c939.8,134.3,1779.9,491,2474.2,1053c987.8,797.9,1611.1,1916.1,1797.2,3218.4c32.6,226.3,32.6,982,0,1208.3c-161.1,1135.5-629.1,2088.7-1405.9,2865.5c-759.5,759.5-1687.8,1223.7-2779.2,1392.5C5448.8,5017.5,4775.6,5034.8,4530.1,5007.9z M5642.5,4676.1C6638,4528.5,7552.8,4070,8252.9,3368.1c725-728.8,1170-1636,1313.8-2673.7c15.4-101.7,26.9-354.8,26.9-575.4c0-414.3-21.1-613.8-97.8-978.2c-107.4-506.4-368.3-1122-656-1553.6c-749.9-1123.9-1912.2-1849-3264.4-2035c-235.9-34.5-914.9-34.5-1150.8,0c-725,99.7-1390.5,349.1-1975.5,740.4C1344.3-2969,619.3-1800.9,431.3-456.4c-32.6,237.8-32.6,934.1,1.9,1160.4c220.6,1509.5,1076,2752.3,2380.2,3462c558.1,303,1083.7,458.4,1841.3,544.7C4794.8,4726,5458.4,4703,5642.5,4676.1z"/><path d="M3120.4,1989l-105.5-105.5l882.3-882.3L4779.4,119l-882.3-882.3l-882.3-882.3l111.2-109.3l109.3-111.2l882.3,882.3L5000-101.6l882.3-882.3l882.3-882.3l109.3,111.2l111.2,109.3l-882.3,882.3L5220.6,119l882.3,882.3l882.3,882.3l-111.2,109.3l-109.3,111.2l-882.3-882.3L5000,339.6L4121.6,1218c-481.4,481.4-880.4,876.5-886.1,876.5S3177.9,2046.6,3120.4,1989z"/></g></g>
</svg>